                                                                        S      1
,,,6HvertRG,22HAutoCAD 2025 - English,62HAutodesk Translation Framework G      1
DWG producer (atf_dwg_producer),32,38,7,99,15,,1.,2,2HMM,1,0.08,15H20240G      2
828.231042,0.01,10000.,,7Hunknown,11,0,15H20240828.225739;              G      3
     186       1                       0                        00000000D      1
     186            -157       1       0                               0D      2
     514       2                                                00010000D      3
     514                       2       1                               0D      4
     510       4                                                00010000D      5
     510            -157       1       1                               0D      6
     510       5                                                00010000D      7
     510            -157       1       1                               0D      8
     510       6                                                00010000D      9
     510            -157       1       1                               0D     10
     510       7                                                00010000D     11
     510            -157       1       1                               0D     12
     510       8                                                00010000D     13
     510            -157       1       1                               0D     14
     510       9                                                00010000D     15
     510            -157       1       1                               0D     16
     510      10                                                00010000D     17
     510            -157       1       1                               0D     18
     510      11                                                00010000D     19
     510            -157       1       1                               0D     20
     510      12                                                00010000D     21
     510            -157       1       1                               0D     22
     510      13                                                00010000D     23
     510            -157       1       1                               0D     24
     510      14                                                00010000D     25
     510            -157       1       1                               0D     26
     510      15                                                00010000D     27
     510            -157       1       1                               0D     28
     510      16                                                00010000D     29
     510            -157       1       1                               0D     30
     508      17                                                00010000D     31
     508                       1       1                               0D     32
     508      18                                                00010000D     33
     508                       1       1                               0D     34
     508      19                                                00010000D     35
     508                       1       1                               0D     36
     508      20                                                00010000D     37
     508                       1       1                               0D     38
     508      21                                                00010000D     39
     508                       1       1                               0D     40
     508      22                                                00010000D     41
     508                       1       1                               0D     42
     508      23                                                00010000D     43
     508                       1       1                               0D     44
     508      24                                                00010000D     45
     508                       1       1                               0D     46
     508      25                                                00010000D     47
     508                       1       1                               0D     48
     508      26                                                00010000D     49
     508                       1       1                               0D     50
     508      27                                                00010000D     51
     508                       1       1                               0D     52
     508      28                                                00010000D     53
     508                       3       1                               0D     54
     508      31                                                00010000D     55
     508                       3       1                               0D     56
     126      34                                                00010000D     57
     126       0               2       0                               0D     58
     126      36                                                00010000D     59
     126       0               2       0                               0D     60
     126      38                                                00010000D     61
     126       0               2       0                               0D     62
     126      40                                                00010000D     63
     126       0               2       0                               0D     64
     126      42                                                00010000D     65
     126       0               2       0                               0D     66
     126      44                                                00010000D     67
     126       0               2       0                               0D     68
     126      46                                                00010000D     69
     126       0               2       0                               0D     70
     126      48                                                00010000D     71
     126       0               2       0                               0D     72
     126      50                                                00010000D     73
     126       0               2       0                               0D     74
     126      52                                                00010000D     75
     126       0               2       0                               0D     76
     126      54                                                00010000D     77
     126       0               2       0                               0D     78
     126      56                                                00010000D     79
     126       0               2       0                               0D     80
     126      58                                                00010000D     81
     126       0               2       0                               0D     82
     126      60                                                00010000D     83
     126       0               2       0                               0D     84
     126      62                                                00010000D     85
     126       0               2       0                               0D     86
     126      64                                                00010000D     87
     126       0               2       0                               0D     88
     126      66                                                00010000D     89
     126       0               2       0                               0D     90
     126      68                                                00010000D     91
     126       0               2       0                               0D     92
     126      70                                                00010000D     93
     126       0               2       0                               0D     94
     126      72                                                00010000D     95
     126       0               2       0                               0D     96
     126      74                                                00010000D     97
     126       0               2       0                               0D     98
     126      76                                                00010000D     99
     126       0               2       0                               0D    100
     126      78                                                00010000D    101
     126       0               3       0                               0D    102
     126      81                                                00010000D    103
     126       0               3       0                               0D    104
     126      84                                                00010000D    105
     126       0               3       0                               0D    106
     126      87                                                00010000D    107
     126       0               6       0                               0D    108
     126      93                                                00010000D    109
     126       0               6       0                               0D    110
     126      99                                                00010000D    111
     126       0               2       0                               0D    112
     126     101                                                00010000D    113
     126       0               2       0                               0D    114
     126     103                                                00010000D    115
     126       0               2       0                               0D    116
     126     105                                                00010000D    117
     126       0               2       0                               0D    118
     126     107                                                00010000D    119
     126       0               3       0                               0D    120
     126     110                                                00010000D    121
     126       0               3       0                               0D    122
     128     113                                                00010000D    123
     128       0    -157       4       0                               0D    124
     128     117                                                00010000D    125
     128       0    -157       3       0                               0D    126
     128     120                                                00010000D    127
     128       0    -157       4       0                               0D    128
     128     124                                                00010000D    129
     128       0    -157       4       0                               0D    130
     128     128                                                00010000D    131
     128       0    -157       3       0                               0D    132
     128     131                                                00010000D    133
     128       0    -157       3       0                               0D    134
     128     134                                                00010000D    135
     128       0    -157       6       0                               0D    136
     128     140                                                00010000D    137
     128       0    -157       6       0                               0D    138
     128     146                                                00010000D    139
     128       0    -157      10       0                               0D    140
     128     156                                                00010000D    141
     128       0    -157       4       0                               0D    142
     128     160                                                00010000D    143
     128       0    -157       7       0                               0D    144
     128     167                                                00010000D    145
     128       0    -157       6       0                               0D    146
     128     173                                                00010000D    147
     128       0    -157       6       0                               0D    148
     502     179                                                00010000D    149
     502                       6       1                               0D    150
     504     185                                                00010001D    151
     504                       9       1                               0D    152
     406     194                                                00000000D    153
     406                       1      15                               0D    154
     406     195                       0                        00000000D    155
     406            -157       1       3                               0D    156
     314     196                                                00000200D    157
     314                       1       0                               0D    158
186,3,1,0,0,1,153;                                                     1P      1
514,13,5,1,7,1,9,1,11,1,13,1,15,1,17,1,19,1,21,1,23,1,25,1,27,1,       3P      2
29,1;                                                                  3P      3
510,123,1,1,31;                                                        5P      4
510,125,1,1,33;                                                        7P      5
510,127,1,1,35;                                                        9P      6
510,129,1,1,37;                                                       11P      7
510,131,1,1,39;                                                       13P      8
510,133,1,1,41;                                                       15P      9
510,135,1,1,43;                                                       17P     10
510,137,1,1,45;                                                       19P     11
510,139,1,1,47;                                                       21P     12
510,141,1,1,49;                                                       23P     13
510,143,1,1,51;                                                       25P     14
510,145,1,1,53;                                                       27P     15
510,147,1,1,55;                                                       29P     16
508,4,0,151,1,0,0,0,151,2,0,0,0,151,3,1,0,0,151,4,0,0;                31P     17
508,4,0,151,1,1,0,0,151,5,0,0,0,151,6,0,0,0,151,7,0,0;                33P     18
508,4,0,151,8,0,0,0,151,6,1,0,0,151,9,0,0,0,151,10,0,0;               35P     19
508,4,0,151,11,0,0,0,151,10,1,0,0,151,12,0,0,0,151,13,0,0;            37P     20
508,4,0,151,14,0,0,0,151,13,1,0,0,151,15,0,0,0,151,16,0,0;            39P     21
508,4,0,151,17,0,0,0,151,16,1,0,0,151,18,0,0,0,151,19,0,0;            41P     22
508,4,0,151,20,0,0,0,151,19,1,0,0,151,21,0,0,0,151,22,0,0;            43P     23
508,4,0,151,23,0,0,0,151,22,1,0,0,151,24,0,0,0,151,25,0,0;            45P     24
508,4,0,151,26,0,0,0,151,25,1,0,0,151,27,0,0,0,151,28,0,0;            47P     25
508,4,0,151,29,0,0,0,151,28,1,0,0,151,30,0,0,0,151,31,0,0;            49P     26
508,4,0,151,32,0,0,0,151,31,1,0,0,151,33,0,0,0,151,3,0,0;             51P     27
508,11,0,151,32,1,0,0,151,2,1,0,0,151,7,1,0,0,151,8,1,0,0,151,        53P     28
11,1,0,0,151,14,1,0,0,151,17,1,0,0,151,20,1,0,0,151,23,1,0,0,         53P     29
151,26,1,0,0,151,29,1,0;                                              53P     30
508,11,0,151,33,1,0,0,151,30,1,0,0,151,27,1,0,0,151,24,1,0,0,         55P     31
151,21,1,0,0,151,18,1,0,0,151,15,1,0,0,151,12,1,0,0,151,9,1,0,0,      55P     32
151,5,1,0,0,151,4,1,0;                                                55P     33
126,1,1,0,0,1,0,-0.5,-0.5,1.5,1.5,1.,1.,0.,1.2,0.,0.,1.2,2.,          57P     34
-0.5,1.5,0.,0.,0.;                                                    57P     35
126,1,1,0,0,1,0,0.,0.,1.2,1.2,1.,1.,0.,0.,0.,0.,1.2,0.,0.,1.2,        59P     36
0.,0.,0.;                                                             59P     37
126,1,1,0,0,1,0,0.,0.,2.,2.,1.,1.,0.,-2.77555756156289D-17,0.,        61P     38
0.,-2.77555756156289D-17,2.,0.,2.,0.,0.,0.;                           61P     39
126,1,1,0,0,1,0,-1.2,-1.2,0.,0.,1.,1.,0.,1.2,2.,0.,0.,2.,-1.2,        63P     40
0.,0.,0.,0.;                                                          63P     41
126,1,1,0,0,1,0,-4.,-4.,-1.2,-1.2,1.,1.,0.,4.,2.,0.,1.2,2.,-4.,       65P     42
-1.2,0.,0.,0.;                                                        65P     43
126,1,1,0,0,1,0,0.,0.,2.,2.,1.,1.,0.,4.,0.,0.,4.,2.,0.,2.,0.,0.,      67P     44
0.;                                                                   67P     45
126,1,1,0,0,1,0,1.2,1.2,4.,4.,1.,1.,0.,1.2,0.,0.,4.,0.,1.2,4.,        69P     46
0.,0.,0.;                                                             69P     47
126,1,1,0,0,1,0,0.,0.,32.5,32.5,1.,1.,0.,4.,0.,32.5,4.,0.,0.,         71P     48
32.5,0.,0.,0.;                                                        71P     49
126,1,1,0,0,1,0,-32.5,-32.5,0.,0.,1.,1.,32.5,4.,2.,0.,4.,2.,          73P     50
-32.5,0.,0.,0.,0.;                                                    73P     51
126,1,1,0,0,1,0,0.,0.,2.,2.,1.,1.,32.5,4.,0.,32.5,4.,2.,0.,2.,        75P     52
0.,0.,0.;                                                             75P     53
126,1,1,0,0,1,0,0.,0.,3.9,3.9,1.,1.,32.5,4.,0.,32.5,0.1,0.,0.,        77P     54
3.9,0.,0.,0.;                                                         77P     55
126,1,1,0,0,1,0,-3.9,-3.9,0.,0.,1.,1.,32.5,0.1,2.,32.5,4.,2.,         79P     56
-3.9,0.,0.,0.,0.;                                                     79P     57
126,1,1,0,0,1,0,0.,0.,2.,2.,1.,1.,32.5,0.1,0.,32.5,0.1,2.,0.,2.,      81P     58
0.,0.,0.;                                                             81P     59
126,1,1,0,0,1,0,0.,0.,1.,1.,1.,1.,32.5,0.1,0.,31.5,0.1,0.,0.,1.,      83P     60
0.,0.,0.;                                                             83P     61
126,1,1,0,0,1,0,-1.,-1.,0.,0.,1.,1.,31.5,0.1,2.,32.5,0.1,2.,-1.,      85P     62
0.,0.,0.,0.;                                                          85P     63
126,1,1,0,0,1,0,0.,0.,2.,2.,1.,1.,31.5,0.1,0.,31.5,0.1,2.,0.,2.,      87P     64
0.,0.,0.;                                                             87P     65
126,1,1,0,0,1,0,0.,0.,0.4,0.4,1.,1.,31.5,0.1,0.,31.5,-0.3,0.,0.,      89P     66
0.4,0.,0.,0.;                                                         89P     67
126,1,1,0,0,1,0,-0.4,-0.4,0.,0.,1.,1.,31.5,-0.3,2.,31.5,0.1,2.,       91P     68
-0.4,0.,0.,0.,0.;                                                     91P     69
126,1,1,0,0,1,0,0.,0.,2.,2.,1.,1.,31.5,-0.3,0.,31.5,-0.3,2.,0.,       93P     70
2.,0.,0.,0.;                                                          93P     71
126,1,1,0,0,1,0,0.,0.,10.0004999875006,10.0004999875006,1.,1.,        95P     72
31.5,-0.3,0.,21.5,-0.2,0.,0.,10.0004999875006,0.,0.,0.;               95P     73
126,1,1,0,0,1,0,-10.0004999875006,-10.0004999875006,0.,0.,1.,1.,      97P     74
21.5,-0.2,2.,31.5,-0.3,2.,-10.0004999875006,0.,0.,0.,0.;              97P     75
126,1,1,0,0,1,0,0.,0.,2.,2.,1.,1.,21.5,-0.2,0.,21.5,-0.2,2.,0.,       99P     76
2.,0.,0.,0.;                                                          99P     77
126,1,1,0,0,1,0,0.,0.,1.7578395831247,1.7578395831247,1.,1.,         101P     78
21.5,-0.2,0.,20.3513998402396,1.13068316025956,0.,0.,                101P     79
1.7578395831247,0.,0.,0.;                                            101P     80
126,1,1,0,0,1,0,-1.7578395831247,-1.7578395831247,0.,0.,1.,1.,       103P     81
20.3513998402396,1.13068316025956,2.,21.5,-0.2,2.,                   103P     82
-1.7578395831247,0.,0.,0.,0.;                                        103P     83
126,1,1,0,0,1,0,0.,0.,2.,2.,1.,1.,20.3513998402396,                  105P     84
1.13068316025956,0.,20.3513998402396,1.13068316025956,2.,0.,2.,      105P     85
0.,0.,0.;                                                            105P     86
126,4,2,0,0,0,0,0.,0.,0.,1.21475233158787,1.21475233158787,          107P     87
2.42950466317574,2.42950466317574,2.42950466317574,1.,               107P     88
0.821148303923945,1.,0.821148303923857,1.,20.3513998402396,          107P     89
1.13068316025956,0.,20.2605723703703,1.23590914653253,0.,            107P     90
20.1302861851851,1.18745661904547,0.,20.,1.13900409155841,0.,        107P     91
20.,1.,0.,0.,2.42950466317574,0.,0.,0.;                              107P     92
126,4,2,0,0,0,0,-2.42950466317574,-2.42950466317574,                 109P     93
-2.42950466317574,-1.21475233158787,-1.21475233158787,0.,0.,0.,      109P     94
1.,0.821148303923857,1.,0.821148303923945,1.,20.,1.,2.,20.,          109P     95
1.13900409155841,2.,20.1302861851851,1.18745661904547,2.,            109P     96
20.2605723703703,1.23590914653253,2.,20.3513998402396,               109P     97
1.13068316025956,2.,-2.42950466317574,0.,0.,0.,0.;                   109P     98
126,1,1,0,0,1,0,0.,0.,2.,2.,1.,1.,20.,1.,0.,20.,1.,2.,0.,2.,0.,      111P     99
0.,0.;                                                               111P    100
126,1,1,0,0,1,0,0.,0.,1.2,1.2,1.,1.,20.,1.,0.,20.,-0.2,0.,0.,        113P    101
1.2,0.,0.,0.;                                                        113P    102
126,1,1,0,0,1,0,-1.2,-1.2,0.,0.,1.,1.,20.,-0.2,2.,20.,1.,2.,         115P    103
-1.2,0.,0.,0.,0.;                                                    115P    104
126,1,1,0,0,1,0,0.,0.,2.,2.,1.,1.,20.,-0.2,0.,20.,-0.2,2.,0.,2.,     117P    105
0.,0.,0.;                                                            117P    106
126,1,1,0,0,1,0,0.,0.,20.0009999750012,20.0009999750012,1.,1.,       119P    107
20.,-0.2,0.,0.,-2.77555756156289D-17,0.,0.,20.0009999750012,0.,      119P    108
0.,0.;                                                               119P    109
126,1,1,0,0,1,0,-20.0009999750012,-20.0009999750012,0.,0.,1.,1.,     121P    110
0.,-2.77555756156289D-17,2.,20.,-0.2,2.,-20.0009999750012,0.,0.,     121P    111
0.,0.;                                                               121P    112
128,1,1,1,1,0,0,1,0,0,2.799,2.799,4.001,4.001,-0.001,-0.001,         123P    113
2.001,2.001,1.,1.,1.,1.,0.,1.201,-0.001,0.,-0.00100000000000033,     123P    114
-0.001,0.,1.201,2.001,0.,-0.00100000000000033,2.001,2.799,4.001,     123P    115
-0.001,2.001;                                                        123P    116
128,1,1,1,1,0,0,1,0,0,-0.001,-0.001,2.801,2.801,-0.001,-0.001,       125P    117
2.001,2.001,1.,1.,1.,1.,0.,4.001,-0.001,0.,1.199,-0.001,0.,          125P    118
4.001,2.001,0.,1.199,2.001,-0.001,2.801,-0.001,2.001;                125P    119
128,1,1,1,1,0,0,1,0,0,-0.001,-0.001,32.501,32.501,-0.001,-0.001,     127P    120
2.001,2.001,1.,1.,1.,1.,32.501,4.,-0.001,-0.000999999999997669,      127P    121
4.,-0.001,32.501,4.,2.001,-0.000999999999997669,4.,2.001,-0.001,     127P    122
32.501,-0.001,2.001;                                                 127P    123
128,1,1,1,1,0,0,1,0,0,-0.001,-0.001,3.901,3.901,-0.001,-0.001,       129P    124
2.001,2.001,1.,1.,1.,1.,32.5,0.0990000000000001,-0.001,32.5,         129P    125
4.001,-0.001,32.5,0.0990000000000001,2.001,32.5,4.001,2.001,         129P    126
-0.001,3.901,-0.001,2.001;                                           129P    127
128,1,1,1,1,0,0,1,0,0,-0.001,-0.001,1.001,1.001,-0.001,-0.001,       131P    128
2.001,2.001,1.,1.,1.,1.,31.499,0.1,-0.001,32.501,0.1,-0.001,         131P    129
31.499,0.1,2.001,32.501,0.1,2.001,-0.001,1.001,-0.001,2.001;         131P    130
128,1,1,1,1,0,0,1,0,0,-0.001,-0.001,0.401,0.401,-0.001,-0.001,       133P    131
2.001,2.001,1.,1.,1.,1.,31.5,-0.301,-0.001,31.5,0.101,-0.001,        133P    132
31.5,-0.301,2.001,31.5,0.101,2.001,-0.001,0.401,-0.001,2.001;        133P    133
128,1,1,1,1,0,0,1,0,0,-0.001,-0.001,10.0014999875006,                135P    134
10.0014999875006,-0.001,-0.001,2.001,2.001,1.,1.,1.,1.,              135P    135
21.4990000499963,-0.199990000499963,-0.001,31.5009999500038,         135P    136
-0.300009999500038,-0.001,21.4990000499963,-0.199990000499963,       135P    137
2.001,31.5009999500038,-0.300009999500037,2.001,-0.001,              135P    138
10.0014999875006,-0.001,2.001;                                       135P    139
128,1,1,1,1,0,0,1,0,0,-0.001,-0.001,1.7588395831247,                 137P    140
1.7588395831247,-0.001,-0.001,2.001,2.001,1.,1.,1.,1.,               137P    141
20.3507464244383,1.13144015946076,-0.001,21.5006534158013,           137P    142
-0.200756999201199,-0.001,20.3507464244383,1.13144015946076,         137P    143
2.001,21.5006534158013,-0.200756999201199,2.001,-0.001,              137P    144
1.7588395831247,-0.001,2.001;                                        137P    145
128,1,4,1,2,0,0,0,0,0,0.,0.,10.0000000000001,10.0000000000001,       139P    146
0.,0.,0.,1.21475233158787,1.21475233158787,2.42950466317574,         139P    147
2.42950466317574,2.42950466317574,1.,1.,0.821148303923934,           139P    148
0.821148303923934,1.,1.,0.821148303923934,0.821148303923934,1.,      139P    149
1.,20.3513998402396,1.13068316025956,0.,20.3513998402396,            139P    150
1.13068316025956,2.,20.2605723703703,1.23590914653253,0.,            139P    151
20.2605723703703,1.23590914653253,2.,20.1302861851851,               139P    152
1.18745661904547,0.,20.1302861851851,1.18745661904547,2.,20.,        139P    153
1.13900409155841,0.,20.,1.13900409155841,2.,20.,1.,0.,20.,1.,2.,     139P    154
0.,10.0000000000001,0.,2.42950466317574;                             139P    155
128,1,1,1,1,0,0,1,0,0,-0.00100000000000006,-0.00100000000000006,     141P    156
1.201,1.201,-0.001,-0.001,2.001,2.001,1.,1.,1.,1.,20.,-0.201,        141P    157
-0.001,20.,1.001,-0.001,20.,-0.201,2.001,20.,1.001,2.001,            141P    158
-0.00100000000000006,1.201,-0.001,2.001;                             141P    159
128,1,1,1,1,0,0,1,0,0,-0.001,-0.001,20.0019999750013,                143P    160
20.0019999750013,-0.001,-0.001,2.001,2.001,1.,1.,1.,1.,              143P    161
-0.000999950003749688,9.99950003746912D-6,-0.001,                    143P    162
20.0009999500038,-0.200009999500038,-0.001,                          143P    163
-0.000999950003749688,9.99950003746912D-6,2.001,                     143P    164
20.0009999500038,-0.200009999500038,2.001,-0.001,                    143P    165
20.0019999750013,-0.001,2.001;                                       143P    166
128,1,1,1,1,0,0,1,0,0,-16.4089112072337,-16.4089112072337,           145P    167
16.0930887927663,16.0930887927663,-2.20811828770375,                 145P    168
-2.20811828770375,2.09388171229625,2.09388171229625,1.,1.,1.,1.,     145P    169
32.501,-0.301,0.,-0.00100000000000122,-0.301,0.,32.501,4.001,0.,     145P    170
-0.00100000000000122,4.001,0.,-16.4089112072337,                     145P    171
16.0930887927663,-2.20811828770375,2.09388171229625;                 145P    172
128,1,1,1,1,0,0,1,0,0,-16.4089112072337,-16.4089112072337,           147P    173
16.0930887927663,16.0930887927663,-2.20811828770375,                 147P    174
-2.20811828770375,2.09388171229625,2.09388171229625,1.,1.,1.,1.,     147P    175
-0.00100000000000122,-0.301,2.,32.501,-0.301,2.,                     147P    176
-0.00100000000000122,4.001,2.,32.501,4.001,2.,-16.4089112072337,     147P    177
16.0930887927663,-2.20811828770375,2.09388171229625;                 147P    178
502,22,0.,1.2,0.,0.,1.2,2.,0.,-2.77555756156289D-17,0.,0.,           149P    179
-2.77555756156289D-17,2.,0.,4.,2.,0.,4.,0.,32.5,4.,0.,32.5,4.,       149P    180
2.,32.5,0.1,0.,32.5,0.1,2.,31.5,0.1,0.,31.5,0.1,2.,31.5,-0.3,0.,     149P    181
31.5,-0.3,2.,21.5,-0.2,0.,21.5,-0.2,2.,20.3513998402396,             149P    182
1.13068316025956,0.,20.3513998402396,1.13068316025956,2.,20.,1.,     149P    183
0.,20.,1.,2.,20.,-0.2,0.,20.,-0.2,2.;                                149P    184
504,33,57,149,1,149,2,59,149,3,149,1,61,149,3,149,4,63,149,2,        151P    185
149,4,65,149,5,149,2,67,149,6,149,5,69,149,1,149,6,71,149,6,149,     151P    186
7,73,149,8,149,5,75,149,7,149,8,77,149,7,149,9,79,149,10,149,8,      151P    187
81,149,9,149,10,83,149,9,149,11,85,149,12,149,10,87,149,11,149,      151P    188
12,89,149,11,149,13,91,149,14,149,12,93,149,13,149,14,95,149,13,     151P    189
149,15,97,149,16,149,14,99,149,15,149,16,101,149,15,149,17,103,      151P    190
149,18,149,16,105,149,17,149,18,107,149,17,149,19,109,149,20,        151P    191
149,18,111,149,19,149,20,113,149,19,149,21,115,149,22,149,20,        151P    192
117,149,21,149,22,119,149,21,149,3,121,149,4,149,22;                 151P    193
406,1,2H65;                                                          153P    194
406,2,0,1H0;                                                         155P    195
314,100.,100.,100.,;                                                 157P    196
S      1G      3D    158P    196                                        T      1
